<svg xmlns="http://www.w3.org/2000/svg" width="720" height="379" viewBox="0 0 720 379" fill="none">
  <path d="M705.66 41.1314C701.589 29.0688 693.567 18.0597 682.396 9.2059C671.224 0.352087 657.296 -6.03588 642.005 -9.3187C585.714 -21.2386 360.714 -21.2386 360.714 -21.2386C360.714 -21.2386 135.714 -21.2386 79.4232 -9.3187C64.132 -6.03588 50.2039 0.352087 39.0327 9.2059C27.8616 18.0597 19.8393 29.0688 15.7687 41.1314C0.714113 85.6538 0.714111 178.5 0.714111 178.5C0.714111 178.5 0.714113 271.346 15.7687 315.869C19.8393 327.931 27.8616 338.94 39.0327 347.794C50.2039 356.648 64.132 363.036 79.4232 366.319C135.714 378.239 360.714 378.239 360.714 378.239C360.714 378.239 585.714 378.239 642.005 366.319C657.296 363.036 671.224 356.648 682.396 347.794C693.567 338.94 701.589 327.931 705.66 315.869C720.714 271.346 720.714 178.5 720.714 178.5C720.714 178.5 720.714 85.6538 705.66 41.1314Z" fill="#FF0302"/>
</svg>
<svg width="189" height="169" viewBox="0 0 189 169" fill="none" xmlns="http://www.w3.org/2000/svg">
<path id="Vector" d="M0.0782471 168.81V0.191742L188.26 84.5008L0.0782471 168.81Z" fill="#FEFEFE"/>
</svg>
        