<svg width="16" height="17" viewBox="0 0 16 17" fill="none" xmlns="http://www.w3.org/2000/svg">
<mask id="path-1-inside-1_72_27" fill="white">
<path fill-rule="evenodd" clip-rule="evenodd" d="M12.3849 5.81544C12.3849 7.22613 11.9316 8.50847 11.1919 9.46006C13.473 10.7469 15.1374 13.3703 15.5 16.5H0.5C0.862633 13.3703 2.52697 10.7469 4.8081 9.46008C4.06837 8.50849 3.61502 7.22614 3.61502 5.81544C3.61502 2.8798 5.57823 0.5 7.99997 0.5C10.4217 0.5 12.3849 2.8798 12.3849 5.81544Z"/>
</mask>
<path d="M11.1919 9.46006L10.4023 8.84632C10.2239 9.07592 10.1542 9.37185 10.2114 9.65697C10.2687 9.94209 10.4472 10.1882 10.7005 10.331L11.1919 9.46006ZM15.5 16.5V17.5C15.7853 17.5 16.0569 17.3782 16.2467 17.1652C16.4364 16.9522 16.5262 16.6683 16.4934 16.3849L15.5 16.5ZM0.5 16.5L-0.493354 16.3849C-0.526187 16.6683 -0.436439 16.9522 -0.246692 17.1652C-0.0569444 17.3782 0.214738 17.5 0.5 17.5V16.5ZM4.8081 9.46008L5.29943 10.3311C5.55272 10.1882 5.73126 9.9421 5.78852 9.65699C5.84578 9.37187 5.77609 9.07594 5.59761 8.84634L4.8081 9.46008ZM11.9814 10.0738C12.8643 8.93802 13.3849 7.43716 13.3849 5.81544H11.3849C11.3849 7.0151 10.9989 8.07892 10.4023 8.84632L11.9814 10.0738ZM16.4934 16.3849C16.0997 12.9875 14.2842 10.0563 11.6832 8.58908L10.7005 10.331C12.6619 11.4374 14.175 13.753 14.5066 16.6151L16.4934 16.3849ZM0.5 17.5H15.5V15.5H0.5V17.5ZM4.31677 8.58911C1.71583 10.0563 -0.0997117 12.9876 -0.493354 16.3849L1.49335 16.6151C1.82498 13.753 3.33811 11.4375 5.29943 10.3311L4.31677 8.58911ZM2.61502 5.81544C2.61502 7.43718 3.13568 8.93805 4.01859 10.0738L5.59761 8.84634C5.00105 8.07894 4.61502 7.01511 4.61502 5.81544H2.61502ZM7.99997 -0.5C4.85451 -0.5 2.61502 2.51618 2.61502 5.81544H4.61502C4.61502 3.24343 6.30194 1.5 7.99997 1.5V-0.5ZM13.3849 5.81544C13.3849 2.51618 11.1454 -0.5 7.99997 -0.5V1.5C9.69799 1.5 11.3849 3.24342 11.3849 5.81544H13.3849Z" fill="white" mask="url(#path-1-inside-1_72_27)"/>
</svg>
