<svg width="49" height="48" viewBox="0 0 49 48" fill="none" xmlns="http://www.w3.org/2000/svg">
<g clip-path="url(#clip0_68_171)">
<path d="M24.5 0C11.2453 0 0.5 10.7453 0.5 24C0.5 35.255 8.24912 44.6995 18.7026 47.2934V31.3344H13.7538V24H18.7026V20.8397C18.7026 12.671 22.3995 8.8848 30.4194 8.8848C31.94 8.8848 34.5637 9.18336 35.637 9.48096V16.129C35.0706 16.0694 34.0866 16.0397 32.8645 16.0397C28.9294 16.0397 27.4088 17.5306 27.4088 21.4061V24H35.2482L33.9013 31.3344H27.4088V47.8243C39.2926 46.3891 48.501 36.2707 48.501 24C48.5 10.7453 37.7547 0 24.5 0Z" fill="white"/>
</g>
<defs>
<clipPath id="clip0_68_171">
<rect width="48" height="48" fill="white" transform="translate(0.5)"/>
</clipPath>
</defs>
</svg>
