<svg width="168" height="35" viewBox="0 0 168 35" fill="none" xmlns="http://www.w3.org/2000/svg">
<g filter="url(#filter0_i_302_26)">
<rect width="168" height="35" rx="17.5" fill="#E9CBBA"/>
</g>
<path d="M38.432 22.884L39.332 20.796C39.872 21.12 40.448 21.372 41.06 21.552C41.684 21.72 42.29 21.816 42.878 21.84C43.478 21.852 44.018 21.792 44.498 21.66C44.99 21.528 45.38 21.33 45.668 21.066C45.968 20.802 46.118 20.466 46.118 20.058C46.118 19.578 45.92 19.224 45.524 18.996C45.128 18.756 44.6 18.636 43.94 18.636H40.862V16.44H43.724C44.312 16.44 44.768 16.32 45.092 16.08C45.428 15.84 45.596 15.51 45.596 15.09C45.596 14.73 45.476 14.442 45.236 14.226C44.996 13.998 44.666 13.83 44.246 13.722C43.838 13.614 43.376 13.566 42.86 13.578C42.344 13.59 41.81 13.674 41.258 13.83C40.706 13.986 40.178 14.202 39.674 14.478L38.792 12.228C39.608 11.808 40.466 11.52 41.366 11.364C42.278 11.196 43.154 11.154 43.994 11.238C44.846 11.31 45.614 11.502 46.298 11.814C46.982 12.114 47.528 12.51 47.936 13.002C48.344 13.494 48.548 14.076 48.548 14.748C48.548 15.348 48.392 15.882 48.08 16.35C47.768 16.818 47.33 17.178 46.766 17.43C46.214 17.682 45.578 17.808 44.858 17.808L44.93 17.16C45.77 17.16 46.496 17.304 47.108 17.592C47.732 17.868 48.212 18.258 48.548 18.762C48.896 19.254 49.07 19.824 49.07 20.472C49.07 21.072 48.908 21.612 48.584 22.092C48.272 22.56 47.84 22.956 47.288 23.28C46.736 23.604 46.106 23.844 45.398 24C44.69 24.156 43.934 24.222 43.13 24.198C42.338 24.174 41.54 24.06 40.736 23.856C39.932 23.64 39.164 23.316 38.432 22.884ZM56.9585 24V22.11L56.7785 21.696V18.312C56.7785 17.712 56.5925 17.244 56.2205 16.908C55.8605 16.572 55.3025 16.404 54.5465 16.404C54.0305 16.404 53.5205 16.488 53.0165 16.656C52.5245 16.812 52.1045 17.028 51.7565 17.304L50.7485 15.342C51.2765 14.97 51.9125 14.682 52.6565 14.478C53.4005 14.274 54.1565 14.172 54.9245 14.172C56.4005 14.172 57.5465 14.52 58.3625 15.216C59.1785 15.912 59.5865 16.998 59.5865 18.474V24H56.9585ZM54.0065 24.144C53.2505 24.144 52.6025 24.018 52.0625 23.766C51.5225 23.502 51.1085 23.148 50.8205 22.704C50.5325 22.26 50.3885 21.762 50.3885 21.21C50.3885 20.634 50.5265 20.13 50.8025 19.698C51.0905 19.266 51.5405 18.93 52.1525 18.69C52.7645 18.438 53.5625 18.312 54.5465 18.312H57.1205V19.95H54.8525C54.1925 19.95 53.7365 20.058 53.4845 20.274C53.2445 20.49 53.1245 20.76 53.1245 21.084C53.1245 21.444 53.2625 21.732 53.5385 21.948C53.8265 22.152 54.2165 22.254 54.7085 22.254C55.1765 22.254 55.5965 22.146 55.9685 21.93C56.3405 21.702 56.6105 21.372 56.7785 20.94L57.2105 22.236C57.0065 22.86 56.6345 23.334 56.0945 23.658C55.5545 23.982 54.8585 24.144 54.0065 24.144ZM68.8838 24L65.6438 19.41L67.9298 18.06L72.1958 24H68.8838ZM62.0258 24V14.316H64.8338V24H62.0258ZM64.0058 20.328V18.078H67.3898V20.328H64.0058ZM68.1998 19.482L65.5718 19.194L68.9738 14.316H71.9618L68.1998 19.482ZM79.1948 24V22.11L79.0148 21.696V18.312C79.0148 17.712 78.8288 17.244 78.4568 16.908C78.0968 16.572 77.5388 16.404 76.7828 16.404C76.2668 16.404 75.7568 16.488 75.2528 16.656C74.7608 16.812 74.3408 17.028 73.9928 17.304L72.9848 15.342C73.5128 14.97 74.1488 14.682 74.8928 14.478C75.6368 14.274 76.3928 14.172 77.1608 14.172C78.6368 14.172 79.7828 14.52 80.5988 15.216C81.4148 15.912 81.8228 16.998 81.8228 18.474V24H79.1948ZM76.2428 24.144C75.4868 24.144 74.8388 24.018 74.2988 23.766C73.7588 23.502 73.3448 23.148 73.0568 22.704C72.7688 22.26 72.6248 21.762 72.6248 21.21C72.6248 20.634 72.7628 20.13 73.0388 19.698C73.3268 19.266 73.7768 18.93 74.3888 18.69C75.0008 18.438 75.7988 18.312 76.7828 18.312H79.3568V19.95H77.0888C76.4288 19.95 75.9728 20.058 75.7208 20.274C75.4808 20.49 75.3608 20.76 75.3608 21.084C75.3608 21.444 75.4988 21.732 75.7748 21.948C76.0628 22.152 76.4528 22.254 76.9448 22.254C77.4128 22.254 77.8328 22.146 78.2048 21.93C78.5768 21.702 78.8468 21.372 79.0148 20.94L79.4468 22.236C79.2428 22.86 78.8708 23.334 78.3308 23.658C77.7908 23.982 77.0948 24.144 76.2428 24.144ZM87.4502 24.18C86.7062 24.18 85.9622 24.102 85.2182 23.946C84.4862 23.79 83.8082 23.556 83.1842 23.244L83.9402 21.282C84.4322 21.522 84.9662 21.708 85.5422 21.84C86.1302 21.96 86.7242 22.02 87.3242 22.02C87.7562 22.02 88.1282 21.978 88.4402 21.894C88.7642 21.798 89.0102 21.666 89.1782 21.498C89.3462 21.33 89.4302 21.126 89.4302 20.886C89.4302 20.574 89.2982 20.34 89.0342 20.184C88.7702 20.016 88.3862 19.932 87.8822 19.932H85.9022V18.186H87.6482C87.9722 18.186 88.2482 18.15 88.4762 18.078C88.7042 18.006 88.8722 17.904 88.9802 17.772C89.1002 17.628 89.1602 17.46 89.1602 17.268C89.1602 17.064 89.0882 16.89 88.9442 16.746C88.8002 16.602 88.5902 16.494 88.3142 16.422C88.0382 16.338 87.6902 16.296 87.2702 16.296C86.7902 16.296 86.2922 16.356 85.7762 16.476C85.2602 16.584 84.7322 16.746 84.1922 16.962L83.5082 15.018C84.1442 14.754 84.7742 14.544 85.3982 14.388C86.0222 14.232 86.6402 14.148 87.2522 14.136C88.1522 14.112 88.9622 14.208 89.6822 14.424C90.4022 14.64 90.9662 14.952 91.3742 15.36C91.7942 15.768 92.0042 16.266 92.0042 16.854C92.0042 17.322 91.8602 17.742 91.5722 18.114C91.2962 18.486 90.9122 18.78 90.4202 18.996C89.9282 19.2 89.3762 19.302 88.7642 19.302L88.8362 18.744C89.9042 18.744 90.7442 18.96 91.3562 19.392C91.9682 19.812 92.2742 20.388 92.2742 21.12C92.2742 21.744 92.0582 22.29 91.6262 22.758C91.2062 23.214 90.6302 23.568 89.8982 23.82C89.1782 24.06 88.3622 24.18 87.4502 24.18ZM100.078 24V22.11L99.8976 21.696V18.312C99.8976 17.712 99.7116 17.244 99.3396 16.908C98.9796 16.572 98.4216 16.404 97.6656 16.404C97.1496 16.404 96.6396 16.488 96.1356 16.656C95.6436 16.812 95.2236 17.028 94.8756 17.304L93.8676 15.342C94.3956 14.97 95.0316 14.682 95.7756 14.478C96.5196 14.274 97.2756 14.172 98.0436 14.172C99.5196 14.172 100.666 14.52 101.482 15.216C102.298 15.912 102.706 16.998 102.706 18.474V24H100.078ZM97.1256 24.144C96.3696 24.144 95.7216 24.018 95.1816 23.766C94.6416 23.502 94.2276 23.148 93.9396 22.704C93.6516 22.26 93.5076 21.762 93.5076 21.21C93.5076 20.634 93.6456 20.13 93.9216 19.698C94.2096 19.266 94.6596 18.93 95.2716 18.69C95.8836 18.438 96.6816 18.312 97.6656 18.312H100.24V19.95H97.9716C97.3116 19.95 96.8556 20.058 96.6036 20.274C96.3636 20.49 96.2436 20.76 96.2436 21.084C96.2436 21.444 96.3816 21.732 96.6576 21.948C96.9456 22.152 97.3356 22.254 97.8276 22.254C98.2956 22.254 98.7156 22.146 99.0876 21.93C99.4596 21.702 99.7296 21.372 99.8976 20.94L100.33 22.236C100.126 22.86 99.7536 23.334 99.2136 23.658C98.6736 23.982 97.9776 24.144 97.1256 24.144ZM107.215 24V15.972L107.845 16.62H103.939V14.316H113.281V16.62H109.375L110.005 15.972V24H107.215ZM120.016 17.412C121.288 17.424 122.254 17.712 122.914 18.276C123.586 18.828 123.922 19.614 123.922 20.634C123.922 21.702 123.544 22.536 122.788 23.136C122.032 23.724 120.982 24.018 119.638 24.018L114.778 24V14.316H117.568V17.412H120.016ZM119.386 22.02C119.926 22.032 120.34 21.918 120.628 21.678C120.916 21.438 121.06 21.078 121.06 20.598C121.06 20.118 120.916 19.776 120.628 19.572C120.34 19.356 119.926 19.242 119.386 19.23L117.568 19.212V22.02H119.386Z" fill="white"/>
<defs>
<filter id="filter0_i_302_26" x="0" y="0" width="168" height="39" filterUnits="userSpaceOnUse" color-interpolation-filters="sRGB">
<feFlood flood-opacity="0" result="BackgroundImageFix"/>
<feBlend mode="normal" in="SourceGraphic" in2="BackgroundImageFix" result="shape"/>
<feColorMatrix in="SourceAlpha" type="matrix" values="0 0 0 0 0 0 0 0 0 0 0 0 0 0 0 0 0 0 127 0" result="hardAlpha"/>
<feOffset dy="4"/>
<feGaussianBlur stdDeviation="2"/>
<feComposite in2="hardAlpha" operator="arithmetic" k2="-1" k3="1"/>
<feColorMatrix type="matrix" values="0 0 0 0 0 0 0 0 0 0 0 0 0 0 0 0 0 0 0.25 0"/>
<feBlend mode="normal" in2="shape" result="effect1_innerShadow_302_26"/>
</filter>
</defs>
</svg>
