<svg width="49" height="48" viewBox="0 0 49 48" fill="none" xmlns="http://www.w3.org/2000/svg">
<path fill-rule="evenodd" clip-rule="evenodd" d="M24.5 0C11.2505 0 0.5 10.7505 0.5 24C0.5 37.2495 11.2505 48 24.5 48C37.7234 48 48.5 37.2495 48.5 24C48.5 10.7505 37.7234 0 24.5 0ZM40.3525 11.0629C43.2158 14.551 44.9339 19.0021 44.986 23.8177C44.3092 23.6877 37.5411 22.308 30.7212 23.167C30.5651 22.8286 30.4349 22.4641 30.2788 22.0998C29.8622 21.1107 29.3937 20.0955 28.9251 19.1324C36.4739 16.0608 39.91 11.6356 40.3525 11.0629ZM24.5 3.54013C29.7061 3.54013 34.4696 5.49242 38.0879 8.69415C37.7234 9.21476 34.6258 13.3536 27.3372 16.0868C23.9794 9.91756 20.2571 4.86768 19.6844 4.08676C21.2201 3.72234 22.8341 3.54013 24.5 3.54013ZM15.7799 5.46637C16.3265 6.19522 19.9708 11.2712 23.3807 17.3102C13.8015 19.8612 5.34165 19.8092 4.43058 19.8092C5.75813 13.4577 10.0531 8.17353 15.7799 5.46637ZM3.98807 24.0261C3.98807 23.8178 3.98807 23.6096 3.98807 23.4014C4.8731 23.4273 14.8167 23.5575 25.0466 20.486C25.6454 21.6312 26.192 22.8026 26.7127 23.9739C26.4522 24.052 26.1659 24.1302 25.9056 24.2082C15.3373 27.6181 9.71476 36.937 9.2462 37.7179C5.9924 34.0998 3.98807 29.2842 3.98807 24.0261ZM24.5 44.5119C19.7624 44.5119 15.3894 42.898 11.9273 40.1908C12.2918 39.4361 16.4565 31.4187 28.014 27.384C28.0661 27.3579 28.0922 27.3579 28.1443 27.332C31.0336 34.8026 32.205 41.0759 32.5173 42.872C30.0445 43.9392 27.3372 44.5119 24.5 44.5119ZM35.9273 40.9978C35.7191 39.7483 34.6258 33.7614 31.9447 26.3948C38.3743 25.3796 43.9967 27.0456 44.6996 27.2799C43.8146 32.9805 40.5347 37.9002 35.9273 40.9978Z" fill="white"/>
</svg>
