<svg width="49" height="48" viewBox="0 0 49 48" fill="none" xmlns="http://www.w3.org/2000/svg">
<g clip-path="url(#clip0_68_168)">
<path fill-rule="evenodd" clip-rule="evenodd" d="M3.87413 3.37413C0.5 6.74826 0.5 12.1788 0.5 23.04V24.96C0.5 35.8212 0.5 41.2517 3.87413 44.6259C7.24826 48 12.6788 48 23.54 48H25.46C36.3212 48 41.7517 48 45.1259 44.6259C48.5 41.2517 48.5 35.8212 48.5 24.96V23.04C48.5 12.1788 48.5 6.74826 45.1259 3.37413C41.7517 0 36.3212 0 25.46 0H23.54C12.6788 0 7.24826 0 3.87413 3.37413ZM8.60012 14.6001C8.86012 27.0801 15.1001 34.5801 26.0401 34.5801H26.6602V27.4401C30.6802 27.8401 33.72 30.7801 34.94 34.5801H40.6201C39.0601 28.9001 34.9599 25.7601 32.3999 24.5601C34.9599 23.0801 38.5599 19.4801 39.4199 14.6001H34.2598C33.1398 18.5601 29.8202 22.1601 26.6602 22.5001V14.6001H21.5V28.4401C18.3 27.6401 14.2601 23.7601 14.0801 14.6001H8.60012Z" fill="white"/>
</g>
<defs>
<clipPath id="clip0_68_168">
<rect width="48" height="48" fill="white" transform="translate(0.5)"/>
</clipPath>
</defs>
</svg>
